<?xml version="1.0" encoding="utf-8"?>
<!-- Generator: Adobe Illustrator 28.0.0, SVG Export Plug-In . SVG Version: 6.00 Build 0)  -->
<svg version="1.1" id="Untitled-P_x25_E1gina_x25_201"
	 xmlns="http://www.w3.org/2000/svg" xmlns:xlink="http://www.w3.org/1999/xlink" x="0px" y="0px" viewBox="0 0 100 23"
	 style="enable-background:new 0 0 100 23;" xml:space="preserve">
<style type="text/css">
	.st0{fill:none;}
	.st1{fill:#FFFFFF;}
</style>
<path class="st0" d="z"/>
<g>
	<path class="st1" d="M58,20.4c0,0.2,0.1,0.3,0.2,0.3c0.1,0,0.2,0,0.2-0.1L89.6,0.8c0.5-0.3,1-0.5,1.8-0.5l6.9,0
		c1.1,0,1.8,0.7,1.8,1.7v12.8c0,1.5-0.4,2.4-1.8,3.3l-8.3,4.9C89.8,23,89.7,23,89.7,23c-0.1,0-0.2-0.1-0.2-0.4l0-14.9
		c0-0.2-0.1-0.3-0.2-0.3c-0.1,0-0.1,0-0.2,0.1L66.3,22c-0.6,0.4-1.2,0.5-1.7,0.5H49.4c-1.1,0-1.8-0.7-1.8-1.7V2.4
		c0-0.1-0.1-0.3-0.2-0.3c-0.1,0-0.1,0-0.2,0.1l-15,8.8c-0.2,0.1-0.2,0.2-0.2,0.2c0,0.1,0,0.1,0.1,0.2L42.9,22
		c0.1,0.1,0.2,0.2,0.2,0.4c0,0.1-0.2,0.2-0.3,0.2h-9.7c-0.8,0-1.3-0.1-1.8-0.5l-6.5-6.4c-0.1-0.1-0.1-0.1-0.2-0.1
		c-0.1,0-0.1,0-0.2,0.1L13.5,22c-0.7,0.4-1.1,0.5-1.8,0.5h-10c-1.1,0-1.8-0.7-1.8-1.7V8.2C0,6.7,0.4,5.8,1.8,5l8.4-4.9
		C10.2,0,10.3,0,10.3,0c0.1,0,0.2,0.1,0.2,0.4v16.8c0,0.2,0,0.3,0.2,0.3c0.1,0,0.2,0,0.2-0.1L39.2,0.8c0.7-0.4,1.1-0.5,1.9-0.5
		l15.2,0C57.3,0.2,58,0.9,58,2V20.4z"/>
</g>
<path class="st0" d="z"/>
</svg>
